<svg width="24" height="25" viewBox="0 0 24 25" fill="none" xmlns="http://www.w3.org/2000/svg">
<path d="M0 12.6445C0 6.01711 5.37258 0.644531 12 0.644531C18.6274 0.644531 24 6.01711 24 12.6445C24 19.2719 18.6274 24.6445 12 24.6445C5.37258 24.6445 0 19.2719 0 12.6445Z" fill="#FF7676"/>
<g clip-path="url(#clip0_3037_42352)">
<path d="M16.4486 7.39299L12.6896 6.17442C12.5665 6.13457 12.4335 6.13457 12.3104 6.17442L8.5508 7.39299C7.95326 7.5861 7.43349 7.95735 7.06534 8.45402C6.6972 8.95068 6.49938 9.5475 6.5 10.1597V13.1446C6.5 17.5562 12.02 19.9928 12.2564 20.0943C12.3331 20.1274 12.4161 20.1445 12.5 20.1445C12.5839 20.1445 12.6669 20.1274 12.7436 20.0943C12.98 19.9928 18.5 17.5562 18.5 13.1446V10.1597C18.5006 9.54743 18.3027 8.95056 17.9344 8.45388C17.5661 7.95721 17.0463 7.586 16.4486 7.39299Z" fill="white"/>
<path d="M12.4016 17.7104C12.0342 17.7104 11.7363 17.4125 11.7363 17.0451V12.388C11.7363 12.0205 12.0342 11.7227 12.4016 11.7227C12.7691 11.7227 13.0669 12.0205 13.0669 12.388V17.0451C13.0669 17.4125 12.7691 17.7104 12.4016 17.7104Z" fill="#FF7676"/>
<path d="M11.7528 9.9684C11.9331 10.1467 12.1492 10.2358 12.4011 10.2358C12.653 10.2358 12.8678 10.1467 13.0455 9.9684C13.2258 9.78728 13.3159 9.57079 13.3159 9.31892C13.3159 9.06988 13.2258 8.85622 13.0455 8.67793C12.8678 8.49681 12.653 8.40625 12.4011 8.40625C12.1492 8.40625 11.9331 8.49681 11.7528 8.67793C11.5752 8.85622 11.4863 9.06988 11.4863 9.31892C11.4863 9.57079 11.5752 9.78728 11.7528 9.9684Z" fill="#FF7676"/>
</g>
<defs>
<clipPath id="clip0_3037_42352">
<rect width="15" height="15" fill="white" transform="translate(5 5.64453)"/>
</clipPath>
</defs>
</svg>
